<svg xmlns="http://www.w3.org/2000/svg" width="800" height="500" viewBox="0 0 800 500" fill="none" role="img" aria-label="software-profesional">
  <defs>
    <linearGradient id="bg" x1="0" y1="0" x2="800" y2="500" gradientUnits="userSpaceOnUse">
      <stop stop-color="#475569"/><stop offset="1" stop-color="#6366f1"/>
    </linearGradient>
    <radialGradient id="glow" cx="0.25" cy="0.2" r="0.9">
      <stop stop-color="#ffffff" stop-opacity="0.35"/><stop offset="1" stop-color="#ffffff" stop-opacity="0"/>
    </radialGradient>
    <filter id="blur"><feGaussianBlur stdDeviation="40"/></filter>
    <pattern id="dots" width="26" height="26" patternUnits="userSpaceOnUse">
      <circle cx="2" cy="2" r="2" fill="#ffffff" fill-opacity="0.10"/>
    </pattern>
  </defs>
  <rect width="800" height="500" fill="url(#bg)"/>
  <rect width="800" height="500" fill="url(#dots)"/>
  <circle cx="650" cy="120" r="150" fill="#ffffff" fill-opacity="0.12" filter="url(#blur)"/>
  <circle cx="120" cy="430" r="140" fill="#000000" fill-opacity="0.10" filter="url(#blur)"/>
  <rect width="800" height="500" fill="url(#glow)"/>
  <g transform="translate(400 250)">
    <rect x="-95" y="-95" width="190" height="190" rx="42" fill="#ffffff" fill-opacity="0.14"/>
    <rect x="-95" y="-95" width="190" height="190" rx="42" fill="none" stroke="#ffffff" stroke-opacity="0.35" stroke-width="1.5"/>
    <g transform="scale(0.92)"><rect x="-46" y="-16" width="92" height="60" rx="8" fill="none" stroke="#fff" stroke-width="7"/><path d="M -20 -16 v -12 a 6 6 0 0 1 6 -6 h 28 a 6 6 0 0 1 6 6 v 12 M -46 12 h 92" stroke="#fff" stroke-width="7" stroke-linecap="round"/></g>
  </g>
</svg>